<mxfile host="Electron" modified="2023-04-18T03:08:46.055Z" agent="Mozilla/5.0 (Windows NT 10.0; Win64; x64) AppleWebKit/537.36 (KHTML, like Gecko) draw.io/21.1.2 Chrome/106.0.5249.199 Electron/21.4.3 Safari/537.36" etag="URXX9tncUz19HZjaHbKg" version="21.1.2" type="device">
  <diagram name="Page-1" id="FiKeVMipUgtX7vGJ4C2d">
    <mxGraphModel dx="1196" dy="713" grid="1" gridSize="10" guides="1" tooltips="1" connect="1" arrows="1" fold="1" page="1" pageScale="1" pageWidth="1654" pageHeight="2336" math="0" shadow="0">
      <root>
        <mxCell id="0" />
        <mxCell id="1" parent="0" />
        <mxCell id="ZQtJljINDhBUwD0UVlm_-6" value="" style="edgeStyle=orthogonalEdgeStyle;rounded=0;orthogonalLoop=1;jettySize=auto;html=1;" edge="1" parent="1" source="ZQtJljINDhBUwD0UVlm_-5">
          <mxGeometry relative="1" as="geometry">
            <mxPoint x="240" y="240" as="targetPoint" />
          </mxGeometry>
        </mxCell>
        <mxCell id="ZQtJljINDhBUwD0UVlm_-5" value="&lt;font style=&quot;font-size: 16px;&quot;&gt;SP&lt;/font&gt;" style="text;html=1;strokeColor=none;fillColor=none;align=center;verticalAlign=middle;whiteSpace=wrap;rounded=0;" vertex="1" parent="1">
          <mxGeometry x="150" y="225" width="60" height="30" as="geometry" />
        </mxCell>
        <mxCell id="ZQtJljINDhBUwD0UVlm_-12" value="" style="edgeStyle=orthogonalEdgeStyle;rounded=0;orthogonalLoop=1;jettySize=auto;html=1;" edge="1" parent="1" source="ZQtJljINDhBUwD0UVlm_-9" target="ZQtJljINDhBUwD0UVlm_-11">
          <mxGeometry relative="1" as="geometry" />
        </mxCell>
        <mxCell id="ZQtJljINDhBUwD0UVlm_-25" value="&lt;font style=&quot;font-size: 14px;&quot;&gt;E(t)&lt;/font&gt;" style="edgeLabel;html=1;align=center;verticalAlign=middle;resizable=0;points=[];" vertex="1" connectable="0" parent="ZQtJljINDhBUwD0UVlm_-12">
          <mxGeometry x="0.2907" relative="1" as="geometry">
            <mxPoint x="-9" as="offset" />
          </mxGeometry>
        </mxCell>
        <mxCell id="ZQtJljINDhBUwD0UVlm_-9" value="&lt;font style=&quot;font-size: 19px;&quot;&gt;+&lt;/font&gt;" style="shape=sumEllipse;perimeter=ellipsePerimeter;whiteSpace=wrap;html=1;backgroundOutline=1;align=left;" vertex="1" parent="1">
          <mxGeometry x="240" y="200" width="80" height="80" as="geometry" />
        </mxCell>
        <mxCell id="ZQtJljINDhBUwD0UVlm_-10" value="&lt;font style=&quot;font-size: 26px;&quot;&gt;-&lt;/font&gt;" style="text;html=1;strokeColor=none;fillColor=none;align=center;verticalAlign=middle;whiteSpace=wrap;rounded=0;" vertex="1" parent="1">
          <mxGeometry x="250" y="255" width="60" height="30" as="geometry" />
        </mxCell>
        <mxCell id="ZQtJljINDhBUwD0UVlm_-14" value="" style="edgeStyle=orthogonalEdgeStyle;rounded=0;orthogonalLoop=1;jettySize=auto;html=1;" edge="1" parent="1" source="ZQtJljINDhBUwD0UVlm_-11" target="ZQtJljINDhBUwD0UVlm_-13">
          <mxGeometry relative="1" as="geometry" />
        </mxCell>
        <mxCell id="ZQtJljINDhBUwD0UVlm_-17" style="edgeStyle=orthogonalEdgeStyle;rounded=0;orthogonalLoop=1;jettySize=auto;html=1;exitX=1;exitY=0.5;exitDx=0;exitDy=0;entryX=0.5;entryY=0;entryDx=0;entryDy=0;" edge="1" parent="1" source="ZQtJljINDhBUwD0UVlm_-11" target="ZQtJljINDhBUwD0UVlm_-15">
          <mxGeometry relative="1" as="geometry">
            <Array as="points">
              <mxPoint x="540" y="240" />
              <mxPoint x="540" y="180" />
              <mxPoint x="787" y="180" />
            </Array>
          </mxGeometry>
        </mxCell>
        <mxCell id="ZQtJljINDhBUwD0UVlm_-11" value="&lt;font style=&quot;font-size: 16px;&quot;&gt;K&lt;sub&gt;p&lt;/sub&gt;&lt;/font&gt;" style="whiteSpace=wrap;html=1;align=center;" vertex="1" parent="1">
          <mxGeometry x="380" y="210" width="120" height="60" as="geometry" />
        </mxCell>
        <mxCell id="ZQtJljINDhBUwD0UVlm_-16" style="edgeStyle=orthogonalEdgeStyle;rounded=0;orthogonalLoop=1;jettySize=auto;html=1;entryX=0;entryY=0.5;entryDx=0;entryDy=0;" edge="1" parent="1" source="ZQtJljINDhBUwD0UVlm_-13" target="ZQtJljINDhBUwD0UVlm_-15">
          <mxGeometry relative="1" as="geometry" />
        </mxCell>
        <mxCell id="ZQtJljINDhBUwD0UVlm_-13" value="&lt;font style=&quot;font-size: 15px;&quot;&gt;1&lt;/font&gt;&lt;hr style=&quot;border-color: var(--border-color); font-size: 15px;&quot;&gt;&lt;font style=&quot;font-size: 15px;&quot;&gt;T&lt;sub style=&quot;border-color: var(--border-color);&quot;&gt;i&lt;/sub&gt;S&lt;/font&gt;" style="whiteSpace=wrap;html=1;" vertex="1" parent="1">
          <mxGeometry x="580" y="210" width="120" height="60" as="geometry" />
        </mxCell>
        <mxCell id="ZQtJljINDhBUwD0UVlm_-20" value="" style="edgeStyle=orthogonalEdgeStyle;rounded=0;orthogonalLoop=1;jettySize=auto;html=1;" edge="1" parent="1" source="ZQtJljINDhBUwD0UVlm_-15" target="ZQtJljINDhBUwD0UVlm_-19">
          <mxGeometry relative="1" as="geometry" />
        </mxCell>
        <mxCell id="ZQtJljINDhBUwD0UVlm_-22" value="&lt;font style=&quot;font-size: 14px;&quot;&gt;Fill(t)&lt;/font&gt;" style="edgeLabel;html=1;align=center;verticalAlign=middle;resizable=0;points=[];" vertex="1" connectable="0" parent="ZQtJljINDhBUwD0UVlm_-20">
          <mxGeometry x="0.236" y="-1" relative="1" as="geometry">
            <mxPoint x="-10" y="-1" as="offset" />
          </mxGeometry>
        </mxCell>
        <mxCell id="ZQtJljINDhBUwD0UVlm_-15" value="&lt;font style=&quot;font-size: 19px;&quot;&gt;+&lt;/font&gt;" style="shape=sumEllipse;perimeter=ellipsePerimeter;whiteSpace=wrap;html=1;backgroundOutline=1;align=left;" vertex="1" parent="1">
          <mxGeometry x="747" y="200" width="80" height="80" as="geometry" />
        </mxCell>
        <mxCell id="ZQtJljINDhBUwD0UVlm_-18" value="&lt;font style=&quot;font-size: 19px;&quot;&gt;+&lt;/font&gt;" style="text;html=1;strokeColor=none;fillColor=none;align=center;verticalAlign=middle;whiteSpace=wrap;rounded=0;" vertex="1" parent="1">
          <mxGeometry x="757" y="195" width="60" height="30" as="geometry" />
        </mxCell>
        <mxCell id="ZQtJljINDhBUwD0UVlm_-23" style="edgeStyle=orthogonalEdgeStyle;rounded=0;orthogonalLoop=1;jettySize=auto;html=1;exitX=1;exitY=0.5;exitDx=0;exitDy=0;entryX=0.5;entryY=1;entryDx=0;entryDy=0;" edge="1" parent="1" source="ZQtJljINDhBUwD0UVlm_-19" target="ZQtJljINDhBUwD0UVlm_-10">
          <mxGeometry relative="1" as="geometry">
            <Array as="points">
              <mxPoint x="1070" y="240" />
              <mxPoint x="1070" y="330" />
              <mxPoint x="280" y="330" />
            </Array>
          </mxGeometry>
        </mxCell>
        <mxCell id="ZQtJljINDhBUwD0UVlm_-24" value="&lt;font style=&quot;font-size: 14px;&quot;&gt;PV&lt;/font&gt;" style="edgeLabel;html=1;align=center;verticalAlign=middle;resizable=0;points=[];" vertex="1" connectable="0" parent="ZQtJljINDhBUwD0UVlm_-23">
          <mxGeometry x="0.1022" y="2" relative="1" as="geometry">
            <mxPoint as="offset" />
          </mxGeometry>
        </mxCell>
        <mxCell id="ZQtJljINDhBUwD0UVlm_-19" value="&lt;font style=&quot;font-size: 16px;&quot;&gt;PLANT&lt;/font&gt;" style="whiteSpace=wrap;html=1;align=center;" vertex="1" parent="1">
          <mxGeometry x="930" y="210" width="120" height="60" as="geometry" />
        </mxCell>
        <mxCell id="ZQtJljINDhBUwD0UVlm_-30" style="edgeStyle=orthogonalEdgeStyle;rounded=0;orthogonalLoop=1;jettySize=auto;html=1;exitX=0;exitY=0.5;exitDx=0;exitDy=0;entryX=1;entryY=0.5;entryDx=0;entryDy=0;shape=link;" edge="1" parent="1" source="ZQtJljINDhBUwD0UVlm_-26" target="ZQtJljINDhBUwD0UVlm_-29">
          <mxGeometry relative="1" as="geometry" />
        </mxCell>
        <mxCell id="ZQtJljINDhBUwD0UVlm_-31" value="&lt;font style=&quot;font-size: 14px;&quot;&gt;PROFINET&lt;/font&gt;" style="edgeLabel;html=1;align=center;verticalAlign=middle;resizable=0;points=[];" vertex="1" connectable="0" parent="ZQtJljINDhBUwD0UVlm_-30">
          <mxGeometry x="-0.3313" relative="1" as="geometry">
            <mxPoint x="-26" as="offset" />
          </mxGeometry>
        </mxCell>
        <mxCell id="ZQtJljINDhBUwD0UVlm_-32" style="edgeStyle=orthogonalEdgeStyle;rounded=0;orthogonalLoop=1;jettySize=auto;html=1;entryX=0;entryY=0.5;entryDx=0;entryDy=0;shape=link;" edge="1" parent="1" source="ZQtJljINDhBUwD0UVlm_-26" target="ZQtJljINDhBUwD0UVlm_-28">
          <mxGeometry relative="1" as="geometry" />
        </mxCell>
        <mxCell id="ZQtJljINDhBUwD0UVlm_-26" value="PLC &lt;br&gt;(PLCSIM)" style="rounded=1;whiteSpace=wrap;html=1;" vertex="1" parent="1">
          <mxGeometry x="1070" y="510" width="120" height="60" as="geometry" />
        </mxCell>
        <mxCell id="ZQtJljINDhBUwD0UVlm_-38" style="edgeStyle=orthogonalEdgeStyle;rounded=0;orthogonalLoop=1;jettySize=auto;html=1;exitX=0.5;exitY=1;exitDx=0;exitDy=0;entryX=0.5;entryY=0;entryDx=0;entryDy=0;" edge="1" parent="1" source="ZQtJljINDhBUwD0UVlm_-28" target="ZQtJljINDhBUwD0UVlm_-37">
          <mxGeometry relative="1" as="geometry" />
        </mxCell>
        <mxCell id="ZQtJljINDhBUwD0UVlm_-43" style="edgeStyle=orthogonalEdgeStyle;rounded=0;orthogonalLoop=1;jettySize=auto;html=1;exitX=0.5;exitY=1;exitDx=0;exitDy=0;entryX=0.5;entryY=0;entryDx=0;entryDy=0;" edge="1" parent="1" source="ZQtJljINDhBUwD0UVlm_-28" target="ZQtJljINDhBUwD0UVlm_-33">
          <mxGeometry relative="1" as="geometry" />
        </mxCell>
        <mxCell id="ZQtJljINDhBUwD0UVlm_-57" style="edgeStyle=orthogonalEdgeStyle;rounded=0;orthogonalLoop=1;jettySize=auto;html=1;exitX=0.5;exitY=1;exitDx=0;exitDy=0;entryX=0.5;entryY=0;entryDx=0;entryDy=0;" edge="1" parent="1" source="ZQtJljINDhBUwD0UVlm_-28" target="ZQtJljINDhBUwD0UVlm_-56">
          <mxGeometry relative="1" as="geometry" />
        </mxCell>
        <mxCell id="ZQtJljINDhBUwD0UVlm_-28" value="PLANT" style="rounded=1;whiteSpace=wrap;html=1;" vertex="1" parent="1">
          <mxGeometry x="1260" y="510" width="120" height="60" as="geometry" />
        </mxCell>
        <mxCell id="ZQtJljINDhBUwD0UVlm_-29" value="HMI" style="rounded=1;whiteSpace=wrap;html=1;" vertex="1" parent="1">
          <mxGeometry x="830" y="510" width="120" height="60" as="geometry" />
        </mxCell>
        <mxCell id="ZQtJljINDhBUwD0UVlm_-40" value="" style="edgeStyle=orthogonalEdgeStyle;rounded=0;orthogonalLoop=1;jettySize=auto;html=1;" edge="1" parent="1" source="ZQtJljINDhBUwD0UVlm_-33" target="ZQtJljINDhBUwD0UVlm_-39">
          <mxGeometry relative="1" as="geometry" />
        </mxCell>
        <mxCell id="ZQtJljINDhBUwD0UVlm_-42" style="edgeStyle=orthogonalEdgeStyle;rounded=0;orthogonalLoop=1;jettySize=auto;html=1;exitX=0.5;exitY=1;exitDx=0;exitDy=0;entryX=0.5;entryY=0;entryDx=0;entryDy=0;" edge="1" parent="1" source="ZQtJljINDhBUwD0UVlm_-33" target="ZQtJljINDhBUwD0UVlm_-41">
          <mxGeometry relative="1" as="geometry" />
        </mxCell>
        <mxCell id="ZQtJljINDhBUwD0UVlm_-45" style="edgeStyle=orthogonalEdgeStyle;rounded=0;orthogonalLoop=1;jettySize=auto;html=1;exitX=1;exitY=0.5;exitDx=0;exitDy=0;entryX=0.5;entryY=0;entryDx=0;entryDy=0;" edge="1" parent="1" source="ZQtJljINDhBUwD0UVlm_-33" target="ZQtJljINDhBUwD0UVlm_-44">
          <mxGeometry relative="1" as="geometry" />
        </mxCell>
        <mxCell id="ZQtJljINDhBUwD0UVlm_-33" value="Sensors" style="whiteSpace=wrap;html=1;rounded=1;" vertex="1" parent="1">
          <mxGeometry x="810" y="650" width="120" height="60" as="geometry" />
        </mxCell>
        <mxCell id="ZQtJljINDhBUwD0UVlm_-47" style="edgeStyle=orthogonalEdgeStyle;rounded=0;orthogonalLoop=1;jettySize=auto;html=1;exitX=0;exitY=0.5;exitDx=0;exitDy=0;entryX=0.5;entryY=0;entryDx=0;entryDy=0;" edge="1" parent="1" source="ZQtJljINDhBUwD0UVlm_-37" target="ZQtJljINDhBUwD0UVlm_-46">
          <mxGeometry relative="1" as="geometry" />
        </mxCell>
        <mxCell id="ZQtJljINDhBUwD0UVlm_-53" style="edgeStyle=orthogonalEdgeStyle;rounded=0;orthogonalLoop=1;jettySize=auto;html=1;exitX=1;exitY=0.5;exitDx=0;exitDy=0;entryX=0.5;entryY=0;entryDx=0;entryDy=0;" edge="1" parent="1" source="ZQtJljINDhBUwD0UVlm_-37" target="ZQtJljINDhBUwD0UVlm_-50">
          <mxGeometry relative="1" as="geometry" />
        </mxCell>
        <mxCell id="ZQtJljINDhBUwD0UVlm_-54" style="edgeStyle=orthogonalEdgeStyle;rounded=0;orthogonalLoop=1;jettySize=auto;html=1;exitX=0.5;exitY=1;exitDx=0;exitDy=0;entryX=0.5;entryY=0;entryDx=0;entryDy=0;" edge="1" parent="1" source="ZQtJljINDhBUwD0UVlm_-37" target="ZQtJljINDhBUwD0UVlm_-48">
          <mxGeometry relative="1" as="geometry" />
        </mxCell>
        <mxCell id="ZQtJljINDhBUwD0UVlm_-55" style="edgeStyle=orthogonalEdgeStyle;rounded=0;orthogonalLoop=1;jettySize=auto;html=1;exitX=0.5;exitY=1;exitDx=0;exitDy=0;entryX=0.5;entryY=0;entryDx=0;entryDy=0;" edge="1" parent="1" source="ZQtJljINDhBUwD0UVlm_-37" target="ZQtJljINDhBUwD0UVlm_-49">
          <mxGeometry relative="1" as="geometry" />
        </mxCell>
        <mxCell id="ZQtJljINDhBUwD0UVlm_-37" value="Actuators" style="rounded=1;whiteSpace=wrap;html=1;" vertex="1" parent="1">
          <mxGeometry x="1260" y="650" width="120" height="60" as="geometry" />
        </mxCell>
        <mxCell id="ZQtJljINDhBUwD0UVlm_-39" value="Level Meter" style="whiteSpace=wrap;html=1;rounded=1;" vertex="1" parent="1">
          <mxGeometry x="680" y="780" width="120" height="60" as="geometry" />
        </mxCell>
        <mxCell id="ZQtJljINDhBUwD0UVlm_-41" value="Flow Meter" style="rounded=1;whiteSpace=wrap;html=1;" vertex="1" parent="1">
          <mxGeometry x="810" y="780" width="120" height="60" as="geometry" />
        </mxCell>
        <mxCell id="ZQtJljINDhBUwD0UVlm_-44" value="Setpoint" style="rounded=1;whiteSpace=wrap;html=1;" vertex="1" parent="1">
          <mxGeometry x="940" y="780" width="120" height="60" as="geometry" />
        </mxCell>
        <mxCell id="ZQtJljINDhBUwD0UVlm_-46" value="Fill Valve" style="rounded=1;whiteSpace=wrap;html=1;" vertex="1" parent="1">
          <mxGeometry x="1070" y="780" width="120" height="60" as="geometry" />
        </mxCell>
        <mxCell id="ZQtJljINDhBUwD0UVlm_-48" value="Discharge Valve" style="rounded=1;whiteSpace=wrap;html=1;" vertex="1" parent="1">
          <mxGeometry x="1200" y="780" width="120" height="60" as="geometry" />
        </mxCell>
        <mxCell id="ZQtJljINDhBUwD0UVlm_-49" value="Warning Light" style="rounded=1;whiteSpace=wrap;html=1;" vertex="1" parent="1">
          <mxGeometry x="1330" y="780" width="120" height="60" as="geometry" />
        </mxCell>
        <mxCell id="ZQtJljINDhBUwD0UVlm_-50" value="Siren" style="rounded=1;whiteSpace=wrap;html=1;" vertex="1" parent="1">
          <mxGeometry x="1460" y="780" width="120" height="60" as="geometry" />
        </mxCell>
        <mxCell id="ZQtJljINDhBUwD0UVlm_-60" style="edgeStyle=orthogonalEdgeStyle;rounded=0;orthogonalLoop=1;jettySize=auto;html=1;exitX=0.5;exitY=1;exitDx=0;exitDy=0;entryX=0.5;entryY=0;entryDx=0;entryDy=0;" edge="1" parent="1" source="ZQtJljINDhBUwD0UVlm_-56" target="ZQtJljINDhBUwD0UVlm_-58">
          <mxGeometry relative="1" as="geometry" />
        </mxCell>
        <mxCell id="ZQtJljINDhBUwD0UVlm_-61" style="edgeStyle=orthogonalEdgeStyle;rounded=0;orthogonalLoop=1;jettySize=auto;html=1;exitX=0.5;exitY=1;exitDx=0;exitDy=0;" edge="1" parent="1" source="ZQtJljINDhBUwD0UVlm_-56" target="ZQtJljINDhBUwD0UVlm_-59">
          <mxGeometry relative="1" as="geometry" />
        </mxCell>
        <mxCell id="ZQtJljINDhBUwD0UVlm_-56" value="Display" style="rounded=1;whiteSpace=wrap;html=1;" vertex="1" parent="1">
          <mxGeometry x="1654" y="650" width="120" height="60" as="geometry" />
        </mxCell>
        <mxCell id="ZQtJljINDhBUwD0UVlm_-58" value="SP" style="rounded=1;whiteSpace=wrap;html=1;" vertex="1" parent="1">
          <mxGeometry x="1590" y="780" width="120" height="60" as="geometry" />
        </mxCell>
        <mxCell id="ZQtJljINDhBUwD0UVlm_-59" value="PV" style="rounded=1;whiteSpace=wrap;html=1;" vertex="1" parent="1">
          <mxGeometry x="1720" y="780" width="120" height="60" as="geometry" />
        </mxCell>
      </root>
    </mxGraphModel>
  </diagram>
</mxfile>
